<svg width="89" height="24" viewBox="0 0 89 24" fill="none" xmlns="http://www.w3.org/2000/svg">
<path d="M13.0563 13.62V16.5055C13.0542 16.5669 13.069 16.6278 13.0992 16.6815C13.1292 16.7353 13.1735 16.7796 13.227 16.8098C13.2807 16.8401 13.3415 16.8552 13.403 16.8532C13.4645 16.8513 13.5244 16.8326 13.576 16.7991L16.0547 15.3518C16.1327 15.3069 16.1976 15.2423 16.2432 15.1646C16.2887 15.087 16.3134 14.9988 16.3146 14.9088V12.026C16.3166 11.9645 16.3018 11.9036 16.2717 11.85C16.2417 11.7962 16.1974 11.7519 16.1439 11.7216C16.0902 11.6913 16.0294 11.6763 15.9678 11.6782C15.9064 11.6802 15.8465 11.6989 15.7949 11.7324L13.3187 13.177C13.2412 13.2219 13.1765 13.2859 13.1309 13.3631C13.0854 13.4402 13.0606 13.5279 13.0589 13.6174" fill="#FF4F20"/>
<path d="M30.6533 4.43463C32.2509 4.43463 33.587 4.81224 34.6618 5.56747C35.6363 6.23912 36.2825 7.14961 36.6002 8.29894C36.655 8.49695 36.5241 8.69432 36.3228 8.73533L33.5231 9.30562C33.322 9.34659 33.1287 9.21507 33.064 9.02028C32.9043 8.53953 32.6309 8.15834 32.2436 7.8767C31.7644 7.51361 31.2197 7.33207 30.6097 7.33207C30.0288 7.33207 29.5568 7.4773 29.1937 7.76777C28.8306 8.04372 28.6491 8.39228 28.6491 8.81347C28.6491 9.4525 29.0412 9.85916 29.8255 10.0334L32.8536 10.7088C35.5259 11.3042 36.8621 12.7203 36.8621 14.9569C36.8621 16.4528 36.2884 17.6147 35.1411 18.4425C33.9937 19.2704 32.5631 19.6843 30.8494 19.6843C29.1501 19.6843 27.705 19.2994 26.5141 18.5297C25.4366 17.8114 24.7734 16.8372 24.5244 15.6072C24.4854 15.4146 24.6171 15.2326 24.81 15.1952L27.8223 14.6104C28.0167 14.5727 28.2044 14.6957 28.2682 14.8833C28.6802 16.0942 29.6059 16.6997 31.0454 16.6997C31.7135 16.6997 32.2364 16.5618 32.614 16.2858C33.0061 16.0099 33.2022 15.6468 33.2022 15.1965C33.2022 14.848 33.1005 14.572 32.8972 14.3687C32.7084 14.1654 32.3598 14.0129 31.8515 13.9112L28.8016 13.2577C26.1873 12.6622 24.8802 11.2534 24.8802 9.03132C24.8802 7.62254 25.4103 6.50423 26.4705 5.67639C27.5308 4.84855 28.925 4.43463 30.6533 4.43463Z" fill="white"/>
<path d="M42.8969 8.13812C44.5671 8.13812 45.9832 8.67549 47.1451 9.75023C48.3069 10.825 48.8879 12.2047 48.8879 13.8894C48.8879 15.5887 48.3069 16.9757 47.1451 18.0504C45.9832 19.1251 44.5671 19.6625 42.8969 19.6625C41.1977 19.6625 39.7599 19.1251 38.5835 18.0504C37.4216 16.9757 36.8406 15.5887 36.8406 13.8894C36.8406 12.2047 37.4216 10.825 38.5835 9.75023C39.7599 8.67549 41.1977 8.13812 42.8969 8.13812ZM42.8969 16.7215C43.6086 16.7215 44.2258 16.4601 44.7487 15.9372C45.2715 15.3999 45.5329 14.7173 45.5329 13.8894C45.5329 13.0616 45.2643 12.3862 44.7269 11.8634C44.204 11.326 43.5941 11.0573 42.8969 11.0573C42.1708 11.0573 41.539 11.326 41.0016 11.8634C40.4642 12.3862 40.1956 13.0616 40.1956 13.8894C40.1956 14.7173 40.457 15.3999 40.9798 15.9372C41.5172 16.4601 42.1562 16.7215 42.8969 16.7215Z" fill="white"/>
<path d="M48.9097 5.13212C48.9097 4.92738 49.0757 4.76141 49.2804 4.76141H54.6828C57.0792 4.76141 59.0108 5.43675 60.4777 6.78744C61.9446 8.1236 62.678 9.88094 62.678 12.0595C62.678 14.238 61.9446 16.0026 60.4777 17.3533C59.0108 18.6894 57.0792 19.3575 54.6828 19.3575H49.2804C49.0757 19.3575 48.9097 19.1916 48.9097 18.9868V5.13212ZM52.5043 15.8715C52.5043 16.0763 52.6703 16.2422 52.875 16.2422H54.5521C55.9173 16.2422 57.0066 15.8646 57.8199 15.1094C58.6477 14.3397 59.0617 13.323 59.0617 12.0595C59.0617 10.7959 58.6477 9.78654 57.8199 9.03132C57.0066 8.26157 55.9173 7.8767 54.5521 7.8767H52.875C52.6703 7.8767 52.5043 8.04267 52.5043 8.24741V15.8715Z" fill="white"/>
<path d="M73.7092 16.264C73.9139 16.264 74.0799 16.43 74.0799 16.6347V18.9868C74.0799 19.1916 73.9139 19.3575 73.7092 19.3575H63.0787C62.874 19.3575 62.708 19.1916 62.708 18.9868V5.13212C62.708 4.92738 62.874 4.76141 63.0787 4.76141H73.6438C73.8486 4.76141 74.0145 4.92738 74.0145 5.13212V7.48421C74.0145 7.68895 73.8486 7.85492 73.6438 7.85492H66.6733C66.4685 7.85492 66.3025 8.02089 66.3025 8.22562V10.2292C66.3025 10.4339 66.4685 10.5999 66.6733 10.5999H73.012C73.2168 10.5999 73.3828 10.7658 73.3828 10.9706V13.1484C73.3828 13.3531 73.2168 13.5191 73.012 13.5191H66.6733C66.4685 13.5191 66.3025 13.6851 66.3025 13.8898V15.8933C66.3025 16.098 66.4685 16.264 66.6733 16.264H73.7092Z" fill="white"/>
<path d="M84.2775 19.3575C84.1486 19.3575 84.029 19.2906 83.9616 19.1808L81.3372 14.9068C81.1922 14.6707 80.849 14.6713 80.7048 14.9078L78.1004 19.1798C78.0331 19.2902 77.9131 19.3575 77.7839 19.3575H74.4127C74.1216 19.3575 73.9441 19.0373 74.0984 18.7903L78.1962 12.2338C78.2712 12.1138 78.2714 11.9615 78.1965 11.8414L74.1404 5.32808C73.9866 5.08115 74.1641 4.76141 74.455 4.76141H77.8268C77.9564 4.76141 78.0766 4.82911 78.1438 4.93995L80.7043 9.16383C80.8483 9.40143 81.1929 9.40198 81.3377 9.16485L83.9181 4.93893C83.9855 4.82867 84.1053 4.76141 84.2345 4.76141H87.6071C87.898 4.76141 88.0755 5.08115 87.9218 5.32808L83.8656 11.8414C83.7908 11.9615 83.7909 12.1138 83.8659 12.2338L87.9637 18.7903C88.1181 19.0373 87.9405 19.3575 87.6494 19.3575H84.2775Z" fill="white"/>
<path fill-rule="evenodd" clip-rule="evenodd" d="M10.7504 23.9321L20.6924 18.1646C20.7692 18.1199 20.833 18.0559 20.8774 17.9788C20.9217 17.9018 20.9451 17.8144 20.945 17.7255L20.9211 6.2316C20.9209 6.14263 20.8973 6.05529 20.8526 5.97834C20.808 5.90138 20.7438 5.83751 20.6668 5.79313L10.7009 0.0679233C10.6239 0.0234259 10.5364 0 10.4474 0C10.3585 0 10.271 0.0234259 10.194 0.0679233L0.25201 5.83602C0.175051 5.88052 0.111215 5.94456 0.066962 6.02167C0.0227092 6.09877 -0.000389725 6.1862 4.97468e-06 6.27509L0.0238349 17.7689C0.0238908 17.8579 0.0474498 17.9452 0.0921226 18.0222C0.136795 18.099 0.200997 18.1628 0.278223 18.2069L10.244 23.9321C10.321 23.9766 10.4083 24 10.4972 24C10.5862 24 10.6734 23.9766 10.7504 23.9321ZM13.5594 10.2405L17.9316 7.67333C17.9698 7.65079 18.0013 7.61868 18.0231 7.58018C18.0449 7.54168 18.0563 7.49814 18.0562 7.45388C18.056 7.40962 18.0442 7.36617 18.0221 7.32785C18 7.28954 17.9681 7.25768 17.9298 7.23545L10.7063 3.08601C10.6294 3.04152 10.542 3.01808 10.4531 3.01808C10.3642 3.01808 10.2769 3.04152 10.1999 3.08601L2.86678 7.33911C2.78975 7.38373 2.72583 7.44786 2.68148 7.52505C2.63714 7.60224 2.61392 7.68975 2.61418 7.77878L2.62074 10.2089C2.62079 10.2978 2.64429 10.385 2.68884 10.4619C2.7334 10.5388 2.79744 10.6026 2.87452 10.6467L7.61196 13.3705C7.68924 13.4149 7.75346 13.4788 7.79813 13.556C7.84279 13.633 7.86633 13.7205 7.86635 13.8096V16.2468C7.8663 16.2765 7.85847 16.3056 7.84366 16.3311C7.82884 16.3568 7.80755 16.3781 7.78192 16.3929C7.75629 16.4078 7.72722 16.4157 7.69759 16.4158C7.66798 16.4158 7.63886 16.4081 7.61315 16.3934L5.39755 15.1203C5.34623 15.0902 5.30378 15.0471 5.27449 14.9953C5.24521 14.9435 5.23011 14.8849 5.23074 14.8253L5.22775 14.0259C5.2274 13.9362 5.20328 13.8482 5.15786 13.7708C5.11244 13.6935 5.04734 13.6296 4.96919 13.5856L2.99487 12.4781C2.95632 12.4565 2.91278 12.4453 2.86858 12.4457C2.82438 12.4461 2.78105 12.4581 2.74292 12.4805C2.70479 12.5028 2.67317 12.5348 2.65121 12.5731C2.62925 12.6115 2.61771 12.6549 2.61775 12.6991V14.2177L2.62311 16.2588C2.62317 16.3477 2.64673 16.435 2.6914 16.5119C2.73608 16.5889 2.80028 16.6526 2.8775 16.6966L9.98366 20.7669C10.0351 20.7963 10.0933 20.8117 10.1526 20.8115C10.2118 20.8114 10.27 20.7956 10.3213 20.7659C10.3726 20.7361 10.4151 20.6934 10.4446 20.642C10.4741 20.5906 10.4896 20.5324 10.4894 20.4731L10.4776 12.2821C10.4774 12.1931 10.4537 12.1057 10.4091 12.0287C10.3644 11.9518 10.3003 11.888 10.2231 11.8436L5.51074 9.13471C5.48499 9.11995 5.4636 9.09866 5.44872 9.07298C5.43384 9.04729 5.42601 9.01814 5.42601 8.98845C5.42601 8.95878 5.43384 8.92962 5.44872 8.90394C5.4636 8.87826 5.48499 8.85697 5.51074 8.8422L10.2089 6.12437C10.2859 6.07987 10.3734 6.05645 10.4624 6.05645C10.5514 6.05645 10.6388 6.07987 10.7158 6.12437L12.8409 7.34686C12.8666 7.36162 12.888 7.38292 12.9029 7.4086C12.9178 7.43429 12.9256 7.46343 12.9256 7.49312C12.9256 7.52279 12.9178 7.55195 12.9029 7.57763C12.888 7.60331 12.8666 7.6246 12.8409 7.63937L10.9678 8.71888C10.9286 8.74156 10.8961 8.77438 10.8738 8.81392C10.8515 8.85346 10.8403 8.89826 10.8412 8.94362C10.8422 8.98899 10.8554 9.03326 10.8793 9.0718C10.9033 9.11035 10.9371 9.14175 10.9774 9.16272L13.0697 10.2529C13.1456 10.2926 13.2305 10.3121 13.3162 10.3099C13.4018 10.3077 13.4855 10.2838 13.5594 10.2405Z" fill="white"/>
<path d="M13.0569 13.6132L13.0611 16.4812C13.0612 16.5404 13.0769 16.5986 13.1065 16.65C13.1362 16.7013 13.1789 16.7439 13.2303 16.7735C13.2817 16.803 13.34 16.8185 13.3992 16.8185C13.4585 16.8184 13.5167 16.8027 13.568 16.773L16.0463 15.3356C16.1232 15.2907 16.1869 15.2266 16.2312 15.1494C16.2754 15.0722 16.2986 14.9848 16.2984 14.8959L16.2924 12.0309C16.2923 11.9715 16.2766 11.9133 16.247 11.8621C16.2173 11.8108 16.1746 11.7682 16.1232 11.7386C16.0718 11.7089 16.0135 11.6934 15.9543 11.6935C15.895 11.6935 15.8368 11.7092 15.7855 11.7389L13.3095 13.1741C13.2324 13.2186 13.1685 13.2826 13.1242 13.3597C13.0798 13.4368 13.0566 13.5242 13.0569 13.6132Z" fill="#FF4F20"/>
</svg>
