<svg width="89" height="24" viewBox="0 0 89 24" fill="none" xmlns="http://www.w3.org/2000/svg">
<g clip-path="url(#clip0_9017_20170)">
<path d="M13.0559 13.6199V16.5054C13.0538 16.5668 13.0686 16.6277 13.0988 16.6814C13.1288 16.7352 13.1731 16.7795 13.2266 16.8097C13.2803 16.84 13.3411 16.8551 13.4026 16.8531C13.4641 16.8512 13.524 16.8325 13.5756 16.799L16.0543 15.3517C16.1323 15.3068 16.1972 15.2422 16.2428 15.1645C16.2883 15.0869 16.313 14.9987 16.3142 14.9087V12.0259C16.3162 11.9644 16.3014 11.9035 16.2713 11.8499C16.2413 11.7961 16.197 11.7518 16.1435 11.7215C16.0898 11.6912 16.029 11.6762 15.9674 11.6781C15.906 11.6801 15.8461 11.6988 15.7945 11.7323L13.3183 13.1769C13.2408 13.2218 13.1761 13.2858 13.1305 13.363C13.085 13.4401 13.0602 13.5278 13.0585 13.6173" fill="#FF7637"/>
<path d="M30.6533 4.43457C32.2509 4.43457 33.587 4.81218 34.6618 5.56741C35.6363 6.23906 36.2825 7.14955 36.6002 8.29888C36.655 8.49689 36.5241 8.69426 36.3228 8.73527L33.5231 9.30556C33.322 9.34653 33.1287 9.21501 33.064 9.02022C32.9043 8.53947 32.6309 8.15828 32.2436 7.87664C31.7644 7.51355 31.2197 7.33201 30.6097 7.33201C30.0288 7.33201 29.5568 7.47724 29.1937 7.76771C28.8306 8.04366 28.6491 8.39222 28.6491 8.81341C28.6491 9.45244 29.0412 9.8591 29.8255 10.0333L32.8536 10.7087C35.5259 11.3041 36.8621 12.7202 36.8621 14.9568C36.8621 16.4527 36.2884 17.6146 35.1411 18.4424C33.9937 19.2703 32.5631 19.6842 30.8494 19.6842C29.1501 19.6842 27.705 19.2993 26.5141 18.5296C25.4366 17.8113 24.7734 16.8371 24.5244 15.6071C24.4854 15.4145 24.6171 15.2325 24.81 15.1951L27.8223 14.6103C28.0167 14.5726 28.2044 14.6956 28.2682 14.8832C28.6802 16.0941 29.6059 16.6996 31.0454 16.6996C31.7135 16.6996 32.2364 16.5617 32.614 16.2857C33.0061 16.0098 33.2022 15.6467 33.2022 15.1964C33.2022 14.8479 33.1005 14.5719 32.8972 14.3686C32.7084 14.1653 32.3598 14.0128 31.8515 13.9111L28.8016 13.2576C26.1873 12.6621 24.8802 11.2533 24.8802 9.03126C24.8802 7.62248 25.4103 6.50417 26.4705 5.67633C27.5308 4.84849 28.925 4.43457 30.6533 4.43457Z" fill="black"/>
<path d="M42.8971 8.13818C44.5673 8.13818 45.9834 8.67555 47.1453 9.75029C48.3071 10.8251 48.8881 12.2048 48.8881 13.8895C48.8881 15.5888 48.3071 16.9758 47.1453 18.0505C45.9834 19.1252 44.5673 19.6626 42.8971 19.6626C41.1979 19.6626 39.7601 19.1252 38.5837 18.0505C37.4218 16.9758 36.8408 15.5888 36.8408 13.8895C36.8408 12.2048 37.4218 10.8251 38.5837 9.75029C39.7601 8.67555 41.1979 8.13818 42.8971 8.13818ZM42.8971 16.7216C43.6088 16.7216 44.226 16.4602 44.7489 15.9373C45.2717 15.4 45.5331 14.7174 45.5331 13.8895C45.5331 13.0617 45.2645 12.3863 44.7271 11.8635C44.2042 11.3261 43.5943 11.0574 42.8971 11.0574C42.171 11.0574 41.5392 11.3261 41.0018 11.8635C40.4644 12.3863 40.1958 13.0617 40.1958 13.8895C40.1958 14.7174 40.4572 15.4 40.98 15.9373C41.5174 16.4602 42.1564 16.7216 42.8971 16.7216Z" fill="black"/>
<path d="M48.9102 5.13218C48.9102 4.92744 49.0762 4.76147 49.2809 4.76147H54.6833C57.0797 4.76147 59.0113 5.43681 60.4782 6.7875C61.9451 8.12366 62.6785 9.881 62.6785 12.0596C62.6785 14.2381 61.9451 16.0027 60.4782 17.3534C59.0113 18.6895 57.0797 19.3576 54.6833 19.3576H49.2809C49.0762 19.3576 48.9102 19.1917 48.9102 18.9869V5.13218ZM52.5048 15.8716C52.5048 16.0764 52.6708 16.2423 52.8755 16.2423H54.5526C55.9178 16.2423 57.0071 15.8647 57.8204 15.1095C58.6482 14.3398 59.0622 13.3231 59.0622 12.0596C59.0622 10.796 58.6482 9.7866 57.8204 9.03138C57.0071 8.26163 55.9178 7.87676 54.5526 7.87676H52.8755C52.6708 7.87676 52.5048 8.04273 52.5048 8.24747V15.8716Z" fill="black"/>
<path d="M73.7092 16.2641C73.9139 16.2641 74.0799 16.4301 74.0799 16.6348V18.9869C74.0799 19.1917 73.9139 19.3576 73.7092 19.3576H63.0787C62.874 19.3576 62.708 19.1917 62.708 18.9869V5.13218C62.708 4.92744 62.874 4.76147 63.0787 4.76147H73.6438C73.8486 4.76147 74.0145 4.92744 74.0145 5.13218V7.48427C74.0145 7.68901 73.8486 7.85498 73.6438 7.85498H66.6733C66.4685 7.85498 66.3025 8.02095 66.3025 8.22568V10.2293C66.3025 10.434 66.4685 10.6 66.6733 10.6H73.012C73.2168 10.6 73.3828 10.7659 73.3828 10.9707V13.1485C73.3828 13.3532 73.2168 13.5192 73.012 13.5192H66.6733C66.4685 13.5192 66.3025 13.6852 66.3025 13.8899V15.8934C66.3025 16.0981 66.4685 16.2641 66.6733 16.2641H73.7092Z" fill="black"/>
<path d="M84.277 19.3576C84.1481 19.3576 84.0286 19.2907 83.9612 19.1809L81.3367 14.9069C81.1917 14.6708 80.8486 14.6714 80.7044 14.9079L78.1 19.1799C78.0327 19.2903 77.9126 19.3576 77.7834 19.3576H74.4122C74.1211 19.3576 73.9436 19.0374 74.0979 18.7904L78.1957 12.2339C78.2707 12.1139 78.271 11.9616 78.1961 11.8415L74.14 5.32814C73.9862 5.08121 74.1637 4.76147 74.4546 4.76147H77.8263C77.9559 4.76147 78.0762 4.82917 78.1434 4.94001L80.7039 9.16389C80.8479 9.40149 81.1925 9.40204 81.3373 9.16491L83.9177 4.93899C83.9851 4.82873 84.1048 4.76147 84.234 4.76147H87.6067C87.8976 4.76147 88.0751 5.08121 87.9214 5.32814L83.8652 11.8415C83.7904 11.9616 83.7905 12.1139 83.8655 12.2339L87.9633 18.7904C88.1177 19.0374 87.9401 19.3576 87.649 19.3576H84.277Z" fill="black"/>
<path fill-rule="evenodd" clip-rule="evenodd" d="M10.7504 23.9321L20.6924 18.1646C20.7692 18.1199 20.833 18.0559 20.8774 17.9788C20.9217 17.9018 20.9451 17.8144 20.945 17.7255L20.9211 6.2316C20.9209 6.14263 20.8973 6.05529 20.8526 5.97834C20.808 5.90138 20.7438 5.83751 20.6668 5.79313L10.7009 0.0679233C10.6239 0.0234259 10.5364 0 10.4474 0C10.3585 0 10.271 0.0234259 10.194 0.0679233L0.25201 5.83602C0.175051 5.88052 0.111215 5.94456 0.066962 6.02167C0.0227092 6.09877 -0.000389725 6.1862 4.97469e-06 6.27509L0.0238349 17.7689C0.0238908 17.8579 0.0474498 17.9452 0.0921226 18.0222C0.136795 18.099 0.200997 18.1628 0.278223 18.2069L10.244 23.9321C10.321 23.9766 10.4083 24 10.4972 24C10.5862 24 10.6734 23.9766 10.7504 23.9321ZM13.5594 10.2405L17.9316 7.67333C17.9698 7.65079 18.0013 7.61868 18.0231 7.58018C18.0449 7.54168 18.0563 7.49814 18.0562 7.45388C18.056 7.40962 18.0442 7.36617 18.0221 7.32785C18 7.28954 17.9681 7.25768 17.9298 7.23545L10.7063 3.08601C10.6294 3.04152 10.542 3.01808 10.4531 3.01808C10.3642 3.01808 10.2769 3.04152 10.1999 3.08601L2.86678 7.33911C2.78975 7.38373 2.72583 7.44786 2.68148 7.52505C2.63714 7.60224 2.61392 7.68975 2.61418 7.77878L2.62074 10.2089C2.62079 10.2978 2.64429 10.385 2.68884 10.4619C2.7334 10.5388 2.79744 10.6026 2.87452 10.6467L7.61196 13.3705C7.68924 13.4149 7.75346 13.4788 7.79813 13.556C7.84279 13.633 7.86633 13.7205 7.86635 13.8096V16.2468C7.8663 16.2765 7.85847 16.3056 7.84366 16.3311C7.82884 16.3568 7.80755 16.3781 7.78192 16.3929C7.75629 16.4078 7.72722 16.4157 7.69759 16.4158C7.66798 16.4158 7.63886 16.4081 7.61315 16.3934L5.39755 15.1203C5.34623 15.0902 5.30378 15.0471 5.27449 14.9953C5.24521 14.9435 5.23011 14.8849 5.23074 14.8253L5.22775 14.0259C5.2274 13.9362 5.20328 13.8482 5.15786 13.7708C5.11244 13.6935 5.04734 13.6296 4.96919 13.5856L2.99487 12.4781C2.95632 12.4565 2.91278 12.4453 2.86858 12.4457C2.82438 12.4461 2.78105 12.4581 2.74292 12.4805C2.70479 12.5028 2.67317 12.5348 2.65121 12.5731C2.62925 12.6115 2.61771 12.6549 2.61775 12.6991V14.2177L2.62311 16.2588C2.62317 16.3477 2.64673 16.435 2.6914 16.5119C2.73608 16.5889 2.80028 16.6526 2.8775 16.6966L9.98366 20.7669C10.0351 20.7963 10.0933 20.8117 10.1526 20.8115C10.2118 20.8114 10.27 20.7956 10.3213 20.7659C10.3726 20.7361 10.4151 20.6934 10.4446 20.642C10.4741 20.5906 10.4896 20.5324 10.4894 20.4731L10.4776 12.2821C10.4774 12.1931 10.4537 12.1057 10.4091 12.0287C10.3644 11.9518 10.3003 11.888 10.2231 11.8436L5.51074 9.13471C5.48499 9.11995 5.4636 9.09866 5.44872 9.07298C5.43384 9.04729 5.42601 9.01814 5.42601 8.98845C5.42601 8.95878 5.43384 8.92962 5.44872 8.90394C5.4636 8.87826 5.48499 8.85697 5.51074 8.8422L10.2089 6.12437C10.2859 6.07987 10.3734 6.05645 10.4624 6.05645C10.5514 6.05645 10.6388 6.07987 10.7158 6.12437L12.8409 7.34686C12.8666 7.36162 12.888 7.38292 12.9029 7.4086C12.9178 7.43429 12.9256 7.46343 12.9256 7.49312C12.9256 7.52279 12.9178 7.55195 12.9029 7.57763C12.888 7.60331 12.8666 7.6246 12.8409 7.63937L10.9678 8.71888C10.9286 8.74156 10.8961 8.77438 10.8738 8.81392C10.8515 8.85346 10.8403 8.89826 10.8412 8.94362C10.8422 8.98899 10.8554 9.03326 10.8793 9.0718C10.9033 9.11035 10.9371 9.14175 10.9774 9.16272L13.0697 10.2529C13.1456 10.2926 13.2305 10.3121 13.3162 10.3099C13.4018 10.3077 13.4855 10.2838 13.5594 10.2405Z" fill="black"/>
<path d="M13.0566 13.6133L13.0608 16.4813C13.0609 16.5405 13.0766 16.5987 13.1062 16.6501C13.1359 16.7014 13.1786 16.744 13.23 16.7736C13.2814 16.8031 13.3397 16.8186 13.3989 16.8186C13.4582 16.8185 13.5164 16.8028 13.5677 16.7731L16.046 15.3357C16.1229 15.2908 16.1866 15.2267 16.2309 15.1495C16.2751 15.0723 16.2983 14.9849 16.2981 14.896L16.2921 12.031C16.292 11.9716 16.2763 11.9134 16.2467 11.8622C16.217 11.8109 16.1743 11.7683 16.1229 11.7387C16.0715 11.709 16.0132 11.6935 15.954 11.6936C15.8947 11.6936 15.8365 11.7093 15.7852 11.739L13.3092 13.1742C13.2321 13.2187 13.1682 13.2827 13.1239 13.3598C13.0795 13.4369 13.0563 13.5243 13.0566 13.6133Z" fill="#FF7637"/>
</g>
<defs>
<clipPath id="clip0_9017_20170">
<rect width="89" height="24" fill="white"/>
</clipPath>
</defs>
</svg>
